<mxfile host="app.diagrams.net" agent="Mozilla/5.0 (Windows NT 10.0; Win64; x64) AppleWebKit/537.36 (KHTML, like Gecko) Chrome/136.0.0.0 Safari/537.36 Edg/136.0.0.0" version="27.0.1">
  <diagram name="第 1 页" id="CVoWWMo-pQGvlzz5wIp6">
    <mxGraphModel dx="1333" dy="1315" grid="1" gridSize="10" guides="1" tooltips="1" connect="1" arrows="1" fold="1" page="1" pageScale="1" pageWidth="827" pageHeight="1169" background="#ffffff" math="0" shadow="0">
      <root>
        <mxCell id="0" />
        <mxCell id="1" parent="0" />
        <mxCell id="MIsWKixtHmsceCOaK5S8-1" value="" style="whiteSpace=wrap;html=1;aspect=fixed;fillColor=#f9f7ed;strokeColor=#36393d;" vertex="1" parent="1">
          <mxGeometry x="50" y="190" width="120" height="120" as="geometry" />
        </mxCell>
        <mxCell id="MIsWKixtHmsceCOaK5S8-2" value="" style="whiteSpace=wrap;html=1;aspect=fixed;fillColor=#eeeeee;strokeColor=#36393d;" vertex="1" parent="1">
          <mxGeometry x="230" y="140" width="120" height="120" as="geometry" />
        </mxCell>
        <mxCell id="MIsWKixtHmsceCOaK5S8-3" value="" style="whiteSpace=wrap;html=1;aspect=fixed;fillColor=#f9f7ed;strokeColor=#36393d;" vertex="1" parent="1">
          <mxGeometry x="240" y="150" width="120" height="120" as="geometry" />
        </mxCell>
        <mxCell id="MIsWKixtHmsceCOaK5S8-4" value="" style="whiteSpace=wrap;html=1;aspect=fixed;fillColor=#eeeeee;strokeColor=#36393d;" vertex="1" parent="1">
          <mxGeometry x="250" y="160" width="120" height="120" as="geometry" />
        </mxCell>
        <mxCell id="MIsWKixtHmsceCOaK5S8-5" value="" style="whiteSpace=wrap;html=1;aspect=fixed;fillColor=#f9f7ed;strokeColor=#36393d;" vertex="1" parent="1">
          <mxGeometry x="260" y="170" width="120" height="120" as="geometry" />
        </mxCell>
        <mxCell id="MIsWKixtHmsceCOaK5S8-6" value="" style="whiteSpace=wrap;html=1;aspect=fixed;fillColor=#eeeeee;strokeColor=#36393d;" vertex="1" parent="1">
          <mxGeometry x="270" y="180" width="120" height="120" as="geometry" />
        </mxCell>
        <mxCell id="MIsWKixtHmsceCOaK5S8-7" value="" style="whiteSpace=wrap;html=1;aspect=fixed;fillColor=#f9f7ed;strokeColor=#36393d;" vertex="1" parent="1">
          <mxGeometry x="280" y="190" width="120" height="120" as="geometry" />
        </mxCell>
        <mxCell id="MIsWKixtHmsceCOaK5S8-8" value="" style="whiteSpace=wrap;html=1;aspect=fixed;fillColor=#eeeeee;strokeColor=#36393d;" vertex="1" parent="1">
          <mxGeometry x="290" y="200" width="120" height="120" as="geometry" />
        </mxCell>
        <mxCell id="MIsWKixtHmsceCOaK5S8-9" value="" style="whiteSpace=wrap;html=1;aspect=fixed;fillColor=#f9f7ed;strokeColor=#36393d;" vertex="1" parent="1">
          <mxGeometry x="300" y="210" width="120" height="120" as="geometry" />
        </mxCell>
        <mxCell id="MIsWKixtHmsceCOaK5S8-10" value="" style="whiteSpace=wrap;html=1;aspect=fixed;fillColor=#eeeeee;strokeColor=#36393d;" vertex="1" parent="1">
          <mxGeometry x="470" y="183.75" width="85" height="85" as="geometry" />
        </mxCell>
        <mxCell id="MIsWKixtHmsceCOaK5S8-15" value="" style="whiteSpace=wrap;html=1;aspect=fixed;fillColor=#f9f7ed;strokeColor=#36393d;" vertex="1" parent="1">
          <mxGeometry x="480" y="193.75" width="85" height="85" as="geometry" />
        </mxCell>
        <mxCell id="MIsWKixtHmsceCOaK5S8-16" value="" style="whiteSpace=wrap;html=1;aspect=fixed;fillColor=#eeeeee;strokeColor=#36393d;" vertex="1" parent="1">
          <mxGeometry x="490" y="203.75" width="85" height="85" as="geometry" />
        </mxCell>
        <mxCell id="MIsWKixtHmsceCOaK5S8-17" value="" style="whiteSpace=wrap;html=1;aspect=fixed;fillColor=#f9f7ed;strokeColor=#36393d;" vertex="1" parent="1">
          <mxGeometry x="500" y="213.75" width="85" height="85" as="geometry" />
        </mxCell>
        <mxCell id="MIsWKixtHmsceCOaK5S8-18" value="" style="whiteSpace=wrap;html=1;aspect=fixed;fillColor=#eeeeee;strokeColor=#36393d;" vertex="1" parent="1">
          <mxGeometry x="510" y="221.25" width="85" height="85" as="geometry" />
        </mxCell>
        <mxCell id="MIsWKixtHmsceCOaK5S8-19" value="" style="whiteSpace=wrap;html=1;aspect=fixed;fillColor=#f9f7ed;strokeColor=#36393d;" vertex="1" parent="1">
          <mxGeometry x="520" y="231.25" width="85" height="85" as="geometry" />
        </mxCell>
        <mxCell id="MIsWKixtHmsceCOaK5S8-20" value="" style="rounded=0;whiteSpace=wrap;html=1;fillColor=#ffcc99;strokeColor=#36393d;" vertex="1" parent="1">
          <mxGeometry x="120" y="231.25" width="20" height="20" as="geometry" />
        </mxCell>
        <mxCell id="MIsWKixtHmsceCOaK5S8-21" value="" style="endArrow=none;html=1;rounded=0;exitX=1;exitY=0;exitDx=0;exitDy=0;movable=1;resizable=1;rotatable=1;deletable=1;editable=1;locked=0;connectable=1;strokeColor=default;entryX=0;entryY=0;entryDx=0;entryDy=0;" edge="1" parent="1" source="MIsWKixtHmsceCOaK5S8-20">
          <mxGeometry width="50" height="50" relative="1" as="geometry">
            <mxPoint x="190" y="270" as="sourcePoint" />
            <mxPoint x="340" y="280" as="targetPoint" />
          </mxGeometry>
        </mxCell>
        <mxCell id="MIsWKixtHmsceCOaK5S8-23" value="" style="endArrow=none;html=1;rounded=0;exitX=1;exitY=1;exitDx=0;exitDy=0;entryX=0;entryY=0;entryDx=0;entryDy=0;" edge="1" parent="1" source="MIsWKixtHmsceCOaK5S8-20">
          <mxGeometry width="50" height="50" relative="1" as="geometry">
            <mxPoint x="240" y="340" as="sourcePoint" />
            <mxPoint x="340" y="280" as="targetPoint" />
          </mxGeometry>
        </mxCell>
        <mxCell id="MIsWKixtHmsceCOaK5S8-24" value="" style="rounded=0;whiteSpace=wrap;html=1;fillColor=#ffcc99;strokeColor=#36393d;" vertex="1" parent="1">
          <mxGeometry x="350" y="245.63" width="20" height="20" as="geometry" />
        </mxCell>
        <mxCell id="MIsWKixtHmsceCOaK5S8-25" value="" style="endArrow=none;html=1;rounded=0;exitX=1;exitY=0;exitDx=0;exitDy=0;movable=1;resizable=1;rotatable=1;deletable=1;editable=1;locked=0;connectable=1;strokeColor=default;" edge="1" parent="1" source="MIsWKixtHmsceCOaK5S8-24">
          <mxGeometry width="50" height="50" relative="1" as="geometry">
            <mxPoint x="420" y="284.38" as="sourcePoint" />
            <mxPoint x="550" y="290" as="targetPoint" />
          </mxGeometry>
        </mxCell>
        <mxCell id="MIsWKixtHmsceCOaK5S8-26" value="" style="endArrow=none;html=1;rounded=0;exitX=1;exitY=1;exitDx=0;exitDy=0;" edge="1" parent="1" source="MIsWKixtHmsceCOaK5S8-24">
          <mxGeometry width="50" height="50" relative="1" as="geometry">
            <mxPoint x="470" y="354.38" as="sourcePoint" />
            <mxPoint x="550" y="290" as="targetPoint" />
          </mxGeometry>
        </mxCell>
        <mxCell id="MIsWKixtHmsceCOaK5S8-29" value="" style="rounded=0;whiteSpace=wrap;html=1;fillColor=#eeeeee;strokeColor=#36393d;" vertex="1" parent="1">
          <mxGeometry x="610" y="120.31" width="150" height="80" as="geometry" />
        </mxCell>
        <mxCell id="MIsWKixtHmsceCOaK5S8-30" value="" style="rounded=0;whiteSpace=wrap;html=1;fillColor=#f9f7ed;strokeColor=#36393d;" vertex="1" parent="1">
          <mxGeometry x="630" y="134.06" width="150" height="80" as="geometry" />
        </mxCell>
        <mxCell id="MIsWKixtHmsceCOaK5S8-31" value="" style="rounded=0;whiteSpace=wrap;html=1;fillColor=#eeeeee;strokeColor=#36393d;" vertex="1" parent="1">
          <mxGeometry x="650" y="153.44" width="150" height="80" as="geometry" />
        </mxCell>
        <mxCell id="MIsWKixtHmsceCOaK5S8-32" value="" style="rounded=0;whiteSpace=wrap;html=1;fillColor=#f9f7ed;strokeColor=#36393d;" vertex="1" parent="1">
          <mxGeometry x="670" y="167.19" width="150" height="80" as="geometry" />
        </mxCell>
        <mxCell id="MIsWKixtHmsceCOaK5S8-33" value="" style="rounded=0;whiteSpace=wrap;html=1;fillColor=#eeeeee;strokeColor=#36393d;" vertex="1" parent="1">
          <mxGeometry x="690" y="183.12" width="150" height="80" as="geometry" />
        </mxCell>
        <mxCell id="MIsWKixtHmsceCOaK5S8-34" value="" style="rounded=0;whiteSpace=wrap;html=1;fillColor=#f9f7ed;strokeColor=#36393d;" vertex="1" parent="1">
          <mxGeometry x="710" y="196.87" width="150" height="80" as="geometry" />
        </mxCell>
        <mxCell id="MIsWKixtHmsceCOaK5S8-35" value="" style="rounded=0;whiteSpace=wrap;html=1;fillColor=#eeeeee;strokeColor=#36393d;" vertex="1" parent="1">
          <mxGeometry x="730" y="216.25" width="150" height="80" as="geometry" />
        </mxCell>
        <mxCell id="MIsWKixtHmsceCOaK5S8-36" value="" style="rounded=0;whiteSpace=wrap;html=1;fillColor=#f9f7ed;strokeColor=#36393d;" vertex="1" parent="1">
          <mxGeometry x="750" y="230" width="150" height="80" as="geometry" />
        </mxCell>
        <mxCell id="MIsWKixtHmsceCOaK5S8-37" value="" style="rounded=0;whiteSpace=wrap;html=1;fillColor=#ffcc99;strokeColor=#36393d;" vertex="1" parent="1">
          <mxGeometry x="552.5" y="251.25" width="20" height="20" as="geometry" />
        </mxCell>
        <mxCell id="MIsWKixtHmsceCOaK5S8-39" value="" style="endArrow=none;html=1;rounded=0;entryX=0;entryY=0;entryDx=0;entryDy=0;exitX=1;exitY=0;exitDx=0;exitDy=0;" edge="1" parent="1" source="MIsWKixtHmsceCOaK5S8-37">
          <mxGeometry width="50" height="50" relative="1" as="geometry">
            <mxPoint x="620" y="340" as="sourcePoint" />
            <mxPoint x="820" y="280" as="targetPoint" />
          </mxGeometry>
        </mxCell>
        <mxCell id="MIsWKixtHmsceCOaK5S8-40" value="" style="endArrow=none;html=1;rounded=0;entryX=0;entryY=0;entryDx=0;entryDy=0;exitX=1;exitY=1;exitDx=0;exitDy=0;" edge="1" parent="1" source="MIsWKixtHmsceCOaK5S8-37">
          <mxGeometry width="50" height="50" relative="1" as="geometry">
            <mxPoint x="680" y="360" as="sourcePoint" />
            <mxPoint x="820" y="280" as="targetPoint" />
          </mxGeometry>
        </mxCell>
        <mxCell id="MIsWKixtHmsceCOaK5S8-41" value="" style="rounded=0;whiteSpace=wrap;html=1;fillColor=#eeeeee;strokeColor=#36393d;" vertex="1" parent="1">
          <mxGeometry x="910" y="120" width="60" height="60" as="geometry" />
        </mxCell>
        <mxCell id="MIsWKixtHmsceCOaK5S8-42" value="" style="rounded=0;whiteSpace=wrap;html=1;fillColor=#f9f7ed;strokeColor=#36393d;" vertex="1" parent="1">
          <mxGeometry x="930" y="136.87" width="60" height="60" as="geometry" />
        </mxCell>
        <mxCell id="MIsWKixtHmsceCOaK5S8-43" value="" style="rounded=0;whiteSpace=wrap;html=1;fillColor=#eeeeee;strokeColor=#36393d;" vertex="1" parent="1">
          <mxGeometry x="950" y="155.01" width="60" height="60" as="geometry" />
        </mxCell>
        <mxCell id="MIsWKixtHmsceCOaK5S8-44" value="" style="rounded=0;whiteSpace=wrap;html=1;fillColor=#f9f7ed;strokeColor=#36393d;" vertex="1" parent="1">
          <mxGeometry x="970" y="171.88" width="60" height="60" as="geometry" />
        </mxCell>
        <mxCell id="MIsWKixtHmsceCOaK5S8-45" value="" style="rounded=0;whiteSpace=wrap;html=1;fillColor=#eeeeee;strokeColor=#36393d;" vertex="1" parent="1">
          <mxGeometry x="990" y="188.76" width="60" height="60" as="geometry" />
        </mxCell>
        <mxCell id="MIsWKixtHmsceCOaK5S8-46" value="" style="rounded=0;whiteSpace=wrap;html=1;fillColor=#f9f7ed;strokeColor=#36393d;" vertex="1" parent="1">
          <mxGeometry x="1010" y="205.63" width="60" height="60" as="geometry" />
        </mxCell>
        <mxCell id="MIsWKixtHmsceCOaK5S8-47" value="" style="rounded=0;whiteSpace=wrap;html=1;fillColor=#eeeeee;strokeColor=#36393d;" vertex="1" parent="1">
          <mxGeometry x="1030" y="221.25" width="60" height="60" as="geometry" />
        </mxCell>
        <mxCell id="MIsWKixtHmsceCOaK5S8-48" value="" style="rounded=0;whiteSpace=wrap;html=1;fillColor=#f9f7ed;strokeColor=#36393d;" vertex="1" parent="1">
          <mxGeometry x="1050" y="238.12" width="60" height="60" as="geometry" />
        </mxCell>
        <mxCell id="MIsWKixtHmsceCOaK5S8-49" value="" style="rounded=0;whiteSpace=wrap;html=1;fillColor=#ffcc99;strokeColor=#36393d;" vertex="1" parent="1">
          <mxGeometry x="830" y="247.19" width="20" height="20" as="geometry" />
        </mxCell>
        <mxCell id="MIsWKixtHmsceCOaK5S8-51" value="" style="endArrow=none;html=1;rounded=0;entryX=0;entryY=0;entryDx=0;entryDy=0;exitX=1;exitY=0;exitDx=0;exitDy=0;" edge="1" parent="1" source="MIsWKixtHmsceCOaK5S8-49">
          <mxGeometry width="50" height="50" relative="1" as="geometry">
            <mxPoint x="920" y="350" as="sourcePoint" />
            <mxPoint x="1080" y="263.1200000000001" as="targetPoint" />
          </mxGeometry>
        </mxCell>
        <mxCell id="MIsWKixtHmsceCOaK5S8-52" value="" style="endArrow=none;html=1;rounded=0;entryX=0;entryY=0;entryDx=0;entryDy=0;exitX=1;exitY=1;exitDx=0;exitDy=0;" edge="1" parent="1" source="MIsWKixtHmsceCOaK5S8-49">
          <mxGeometry width="50" height="50" relative="1" as="geometry">
            <mxPoint x="900" y="320" as="sourcePoint" />
            <mxPoint x="1080" y="263.1200000000001" as="targetPoint" />
          </mxGeometry>
        </mxCell>
        <mxCell id="MIsWKixtHmsceCOaK5S8-54" value="" style="ellipse;whiteSpace=wrap;html=1;aspect=fixed;fillColor=#f9f7ed;strokeColor=#36393d;" vertex="1" parent="1">
          <mxGeometry x="1180" y="100.31" width="20" height="20" as="geometry" />
        </mxCell>
        <mxCell id="MIsWKixtHmsceCOaK5S8-55" value="" style="ellipse;whiteSpace=wrap;html=1;aspect=fixed;fillColor=#f9f7ed;strokeColor=#36393d;" vertex="1" parent="1">
          <mxGeometry x="1180" y="130" width="20" height="20" as="geometry" />
        </mxCell>
        <mxCell id="MIsWKixtHmsceCOaK5S8-56" value="" style="ellipse;whiteSpace=wrap;html=1;aspect=fixed;fillColor=#f9f7ed;strokeColor=#36393d;" vertex="1" parent="1">
          <mxGeometry x="1180" y="160" width="20" height="20" as="geometry" />
        </mxCell>
        <mxCell id="MIsWKixtHmsceCOaK5S8-57" value="" style="ellipse;whiteSpace=wrap;html=1;aspect=fixed;fillColor=#f9f7ed;strokeColor=#36393d;" vertex="1" parent="1">
          <mxGeometry x="1180" y="189.69" width="20" height="20" as="geometry" />
        </mxCell>
        <mxCell id="MIsWKixtHmsceCOaK5S8-58" value="" style="ellipse;whiteSpace=wrap;html=1;aspect=fixed;fillColor=#f9f7ed;strokeColor=#36393d;" vertex="1" parent="1">
          <mxGeometry x="1180" y="216.25" width="20" height="20" as="geometry" />
        </mxCell>
        <mxCell id="MIsWKixtHmsceCOaK5S8-59" value="" style="ellipse;whiteSpace=wrap;html=1;aspect=fixed;fillColor=#f9f7ed;strokeColor=#36393d;" vertex="1" parent="1">
          <mxGeometry x="1180" y="245.94" width="20" height="20" as="geometry" />
        </mxCell>
        <mxCell id="MIsWKixtHmsceCOaK5S8-60" value="" style="ellipse;whiteSpace=wrap;html=1;aspect=fixed;fillColor=#f9f7ed;strokeColor=#36393d;" vertex="1" parent="1">
          <mxGeometry x="1180" y="275.94" width="20" height="20" as="geometry" />
        </mxCell>
        <mxCell id="MIsWKixtHmsceCOaK5S8-61" value="" style="ellipse;whiteSpace=wrap;html=1;aspect=fixed;fillColor=#f9f7ed;strokeColor=#36393d;" vertex="1" parent="1">
          <mxGeometry x="1180" y="305.63" width="20" height="20" as="geometry" />
        </mxCell>
        <mxCell id="MIsWKixtHmsceCOaK5S8-62" value="" style="ellipse;whiteSpace=wrap;html=1;aspect=fixed;fillColor=#eeeeee;strokeColor=#36393d;" vertex="1" parent="1">
          <mxGeometry x="1260" y="161.25" width="20" height="20" as="geometry" />
        </mxCell>
        <mxCell id="MIsWKixtHmsceCOaK5S8-63" value="" style="ellipse;whiteSpace=wrap;html=1;aspect=fixed;fillColor=#eeeeee;strokeColor=#36393d;" vertex="1" parent="1">
          <mxGeometry x="1260" y="190.94" width="20" height="20" as="geometry" />
        </mxCell>
        <mxCell id="MIsWKixtHmsceCOaK5S8-64" value="" style="ellipse;whiteSpace=wrap;html=1;aspect=fixed;fillColor=#eeeeee;strokeColor=#36393d;" vertex="1" parent="1">
          <mxGeometry x="1260" y="217.5" width="20" height="20" as="geometry" />
        </mxCell>
        <mxCell id="MIsWKixtHmsceCOaK5S8-65" value="" style="ellipse;whiteSpace=wrap;html=1;aspect=fixed;fillColor=#eeeeee;strokeColor=#36393d;" vertex="1" parent="1">
          <mxGeometry x="1260" y="247.19" width="20" height="20" as="geometry" />
        </mxCell>
        <mxCell id="MIsWKixtHmsceCOaK5S8-66" value="" style="endArrow=none;html=1;rounded=0;entryX=0;entryY=0.5;entryDx=0;entryDy=0;exitX=1;exitY=0;exitDx=0;exitDy=0;" edge="1" parent="1" source="MIsWKixtHmsceCOaK5S8-41" target="MIsWKixtHmsceCOaK5S8-54">
          <mxGeometry width="50" height="50" relative="1" as="geometry">
            <mxPoint x="1010" y="150" as="sourcePoint" />
            <mxPoint x="1060" y="100" as="targetPoint" />
          </mxGeometry>
        </mxCell>
        <mxCell id="MIsWKixtHmsceCOaK5S8-67" value="" style="endArrow=none;html=1;rounded=0;entryX=0;entryY=0.5;entryDx=0;entryDy=0;exitX=1;exitY=1;exitDx=0;exitDy=0;" edge="1" parent="1" source="MIsWKixtHmsceCOaK5S8-48" target="MIsWKixtHmsceCOaK5S8-61">
          <mxGeometry width="50" height="50" relative="1" as="geometry">
            <mxPoint x="1060" y="420" as="sourcePoint" />
            <mxPoint x="1110" y="370" as="targetPoint" />
          </mxGeometry>
        </mxCell>
        <mxCell id="MIsWKixtHmsceCOaK5S8-68" value="" style="endArrow=none;html=1;rounded=0;exitX=1;exitY=0.5;exitDx=0;exitDy=0;entryX=0.5;entryY=0;entryDx=0;entryDy=0;" edge="1" parent="1" source="MIsWKixtHmsceCOaK5S8-54" target="MIsWKixtHmsceCOaK5S8-62">
          <mxGeometry width="50" height="50" relative="1" as="geometry">
            <mxPoint x="1230" y="150" as="sourcePoint" />
            <mxPoint x="1280" y="100" as="targetPoint" />
          </mxGeometry>
        </mxCell>
        <mxCell id="MIsWKixtHmsceCOaK5S8-69" value="" style="endArrow=none;html=1;rounded=0;entryX=0.5;entryY=1;entryDx=0;entryDy=0;exitX=1;exitY=0.5;exitDx=0;exitDy=0;" edge="1" parent="1" source="MIsWKixtHmsceCOaK5S8-61" target="MIsWKixtHmsceCOaK5S8-65">
          <mxGeometry width="50" height="50" relative="1" as="geometry">
            <mxPoint x="1280" y="410" as="sourcePoint" />
            <mxPoint x="1330" y="360" as="targetPoint" />
          </mxGeometry>
        </mxCell>
        <mxCell id="MIsWKixtHmsceCOaK5S8-70" value="&lt;font style=&quot;font-size: 24px;&quot;&gt;输入&lt;/font&gt;" style="text;html=1;align=center;verticalAlign=middle;whiteSpace=wrap;rounded=0;" vertex="1" parent="1">
          <mxGeometry x="80" y="340" width="60" height="30" as="geometry" />
        </mxCell>
        <mxCell id="MIsWKixtHmsceCOaK5S8-72" value="&lt;span style=&quot;font-size: 24px;&quot;&gt;卷积层1&lt;/span&gt;" style="text;html=1;align=center;verticalAlign=middle;whiteSpace=wrap;rounded=0;" vertex="1" parent="1">
          <mxGeometry x="274" y="340" width="140" height="30" as="geometry" />
        </mxCell>
        <mxCell id="MIsWKixtHmsceCOaK5S8-73" value="&lt;span style=&quot;font-size: 24px;&quot;&gt;池化层1&lt;/span&gt;" style="text;html=1;align=center;verticalAlign=middle;whiteSpace=wrap;rounded=0;" vertex="1" parent="1">
          <mxGeometry x="490" y="340" width="140" height="30" as="geometry" />
        </mxCell>
        <mxCell id="MIsWKixtHmsceCOaK5S8-74" value="&lt;span style=&quot;font-size: 24px;&quot;&gt;卷积层2&lt;/span&gt;" style="text;html=1;align=center;verticalAlign=middle;whiteSpace=wrap;rounded=0;" vertex="1" parent="1">
          <mxGeometry x="730" y="340" width="140" height="30" as="geometry" />
        </mxCell>
        <mxCell id="MIsWKixtHmsceCOaK5S8-75" value="&lt;span style=&quot;font-size: 24px;&quot;&gt;池化层2&lt;/span&gt;" style="text;html=1;align=center;verticalAlign=middle;whiteSpace=wrap;rounded=0;" vertex="1" parent="1">
          <mxGeometry x="1020" y="340" width="90" height="30" as="geometry" />
        </mxCell>
        <mxCell id="MIsWKixtHmsceCOaK5S8-76" value="&lt;span style=&quot;font-size: 24px;&quot;&gt;全连接&lt;/span&gt;" style="text;html=1;align=center;verticalAlign=middle;whiteSpace=wrap;rounded=0;" vertex="1" parent="1">
          <mxGeometry x="1145" y="340" width="90" height="30" as="geometry" />
        </mxCell>
        <mxCell id="MIsWKixtHmsceCOaK5S8-77" value="&lt;span style=&quot;font-size: 24px;&quot;&gt;输出&lt;/span&gt;" style="text;html=1;align=center;verticalAlign=middle;whiteSpace=wrap;rounded=0;" vertex="1" parent="1">
          <mxGeometry x="1225" y="296.25" width="90" height="30" as="geometry" />
        </mxCell>
      </root>
    </mxGraphModel>
  </diagram>
</mxfile>
